<svg version="1.1" id="Layer_1" xmlns="http://www.w3.org/2000/svg" xmlns:xlink="http://www.w3.org/1999/xlink" x="0px" y="0px"
	 width="100%" viewBox="0 0 150 150" enable-background="new 0 0 150 150" xml:space="preserve">
<path fill="none" opacity="1.000000" stroke="#000000" stroke-linecap="round" stroke-linejoin="round" stroke-width="3.000000"
	d="
M37.500000,115.000000 
	C36.424725,119.118011 39.450867,121.897842 41.095970,124.948242 
	C46.118511,134.261200 52.998997,141.962051 62.503784,146.992859 
	C75.361427,153.798279 86.945496,149.924362 97.402664,141.873566 
	C104.006172,136.789627 109.348404,130.260742 112.029816,122.009689 
	C112.485413,120.607758 112.989952,118.870567 114.057945,118.078094 
	C119.396942,114.116440 120.265617,107.407928 124.060516,102.919518 
	C123.733292,100.450050 121.407959,100.801826 120.537903,99.555267 
	C121.363098,93.503899 122.352501,87.518944 122.951088,81.495140 
	C123.529770,75.671631 122.211143,69.680000 124.059120,63.357990 
	C118.483498,61.230072 121.381989,55.288242 120.206573,50.944107 
	C116.178452,36.056900 110.309135,22.337820 98.980560,11.520357 
	C86.120903,-0.759098 67.904236,-1.339930 54.493492,10.492623 
	C46.556431,17.495640 40.218964,25.534864 37.500000,36.000000 
"/>
<path fill="none" opacity="1.000000" stroke="#000000" stroke-linecap="round" stroke-linejoin="round" stroke-width="3.000000"
	d="
M55.000000,123.000000 
	C60.719162,126.701523 67.080765,129.063446 73.543701,130.841125 
	C77.104233,131.820465 80.891136,130.756073 84.550949,129.113525 
	C91.373520,126.051514 98.500000,123.666664 105.500000,121.000000 
"/>
<path fill="none" opacity="1.000000" stroke="#000000" stroke-linecap="round" stroke-linejoin="round" stroke-width="3.000000"
	d="
M108.000000,24.000000 
	C95.886871,23.204330 83.990005,25.542067 72.011574,26.627714 
	C71.114601,26.709009 70.671906,26.291449 70.000000,26.250000 
"/>
<path fill="none" opacity="1.000000" stroke="#000000" stroke-linecap="round" stroke-linejoin="round" stroke-width="3.000000"
	d="
M32.000000,57.500000 
	C28.485846,65.393112 29.125364,73.788101 29.714046,81.984627 
	C29.960205,85.411972 28.566284,89.431816 31.500000,92.500000 
"/>
<path fill="none" opacity="1.000000" stroke="#000000" stroke-linecap="round" stroke-linejoin="round" stroke-width="3.000000"
	d="
M71.500000,27.500000 
	C71.500000,31.000965 71.500000,34.501930 71.500000,38.437607 
	C79.310120,39.182987 86.927559,39.909977 94.154961,40.599743 
	C95.657471,48.864422 97.078735,56.682213 98.500000,64.500000 
"/>
<path fill="none" opacity="1.000000" stroke="#000000" stroke-linecap="round" stroke-linejoin="round" stroke-width="3.000000"
	d="
M120.000008,101.000008 
	C119.284210,102.120438 118.568413,103.240860 117.537430,104.854645 
	C114.522568,100.918915 113.436218,98.117188 116.025047,95.020943 
	C117.332031,93.457787 119.456512,92.166420 116.975761,90.028122 
	C116.157066,89.322456 109.007874,91.147102 109.074074,91.994209 
	C109.615700,98.923653 105.112564,105.455391 107.500000,112.500000 
"/>
<path fill="none" opacity="1.000000" stroke="#000000" stroke-linecap="round" stroke-linejoin="round" stroke-width="3.000000"
	d="
M46.000000,39.000000 
	C44.166668,38.500000 42.322998,38.034752 40.501991,37.493305 
	C35.580235,36.029911 31.311316,37.441296 28.499998,41.500000 
	C26.871424,43.851177 26.846428,50.601254 29.067266,52.936016 
	C33.003860,57.074532 36.820812,61.225849 37.917465,67.015633 
	C38.257870,68.812782 39.463337,69.832695 40.551746,70.400879 
	C44.936012,72.689606 45.909599,77.004715 47.500000,81.000000 
"/>
<path fill="none" opacity="1.000000" stroke="#000000" stroke-linecap="round" stroke-linejoin="round" stroke-width="3.000000"
	d="
M122.000000,67.500000 
	C114.695305,66.838516 107.832375,69.068489 101.058533,71.187134 
	C99.295319,71.738609 97.779190,73.263199 96.074516,71.906380 
	C95.301994,71.291489 94.745872,69.411995 95.118889,68.551544 
	C95.968246,66.592300 97.368027,65.292511 99.979774,64.873848 
	C107.038834,63.742271 114.000000,62.000000 121.000000,60.500000 
"/>
<path fill="none" opacity="1.000000" stroke="#000000" stroke-linecap="round" stroke-linejoin="round" stroke-width="3.000000"
	d="
M86.500000,70.500000 
	C85.759003,78.343155 82.975838,85.977852 84.015282,93.998016 
	C84.557541,98.181961 86.105011,102.218086 85.981773,106.499474 
	C85.919327,108.669136 85.666664,110.833336 85.500000,113.000000 
"/>
<path fill="none" opacity="1.000000" stroke="#000000" stroke-linecap="round" stroke-linejoin="round" stroke-width="3.000000"
	d="
M76.500000,110.500000 
	C76.351669,104.896248 71.887993,101.286606 70.034424,96.486710 
	C68.225357,91.802078 65.391014,87.483772 65.885719,81.989708 
	C66.196045,78.543320 63.246101,77.083519 59.996452,78.491814 
	C58.350075,79.205299 56.659145,80.423256 55.001247,80.402107 
	C45.791492,80.284637 39.638454,85.783417 33.482040,91.480591 
	C30.013245,94.690636 29.008656,99.026581 30.210962,102.935104 
	C31.758911,107.967255 34.472328,112.712662 39.961815,115.088234 
	C42.193085,116.053818 44.000000,118.000000 46.000000,119.500000 
"/>
<path fill="none" opacity="1.000000" stroke="#000000" stroke-linecap="round" stroke-linejoin="round" stroke-width="3.000000"
	d="
M62.500000,28.500000 
	C56.905010,26.114855 54.253143,30.488520 50.998016,33.497856 
	C46.033287,38.087704 44.875244,44.475227 43.053432,50.516113 
	C42.530270,52.250847 43.574860,53.409840 45.542889,53.555550 
	C47.068439,51.734367 49.503174,50.474075 49.000000,47.500000 
"/>
<path fill="none" opacity="1.000000" stroke="#000000" stroke-linecap="round" stroke-linejoin="round" stroke-width="3.000000"
	d="
M62.500000,105.000000 
	C59.281654,112.881218 52.293755,117.103745 45.534576,121.664482 
	C49.631084,123.485001 52.784126,123.309601 56.071850,120.586761 
	C60.045685,117.295700 63.701565,113.759537 66.331955,109.398636 
	C66.920891,108.422241 67.799545,106.315590 66.556000,104.462418 
	C64.990387,102.129288 63.833332,104.855881 62.500000,104.500000 
"/>
<path fill="none" opacity="1.000000" stroke="#000000" stroke-linecap="round" stroke-linejoin="round" stroke-width="3.000000"
	d="
M67.000000,108.500000 
	C69.562393,109.519035 70.576180,111.915512 72.035774,113.974648 
	C74.194199,117.019653 76.960907,118.182220 80.505737,116.009361 
	C86.478851,112.348045 93.422905,112.059998 100.000000,110.500000 
"/>
<path fill="none" opacity="1.000000" stroke="#000000" stroke-linecap="round" stroke-linejoin="round" stroke-width="3.000000"
	d="
M64.000000,37.500000 
	C58.411171,39.966690 60.136341,45.384258 59.780373,49.524109 
	C59.579098,51.864910 59.407177,53.665653 57.457130,54.383556 
	C55.685677,55.035713 53.823685,54.108120 52.482346,52.514862 
	C51.574879,51.436962 50.500000,50.500000 49.500000,49.500000 
"/>
<path fill="none" opacity="1.000000" stroke="#000000" stroke-linecap="round" stroke-linejoin="round" stroke-width="2.000000"
	d="
M56.500000,62.000000 
	C56.097080,67.719124 58.994717,72.480026 61.000000,77.500000 
"/>
<path fill="none" opacity="1.000000" stroke="#000000" stroke-linecap="round" stroke-linejoin="round" stroke-width="3.000000"
	d="
M102.500000,94.000000 
	C95.174248,92.897369 89.748291,88.858704 85.500000,83.000000 
"/>
<path fill="none" opacity="1.000000" stroke="#000000" stroke-linecap="round" stroke-linejoin="round" stroke-width="3.000000"
	d="
M92.000000,79.500000 
	C94.000000,83.666664 96.000000,87.833336 98.000000,92.000000 
"/>
<path fill="none" opacity="1.000000" stroke="#000000" stroke-linecap="round" stroke-linejoin="round" stroke-width="2.000000"
	d="
M71.500000,59.500000 
	C69.460144,54.596470 65.846878,51.856377 60.500000,51.500000 
"/>
<path fill="none" opacity="1.000000" stroke="#000000" stroke-linecap="round" stroke-linejoin="round" stroke-width="3.000000"
	d="
M59.500000,79.500000 
	C58.741951,85.724892 56.175583,90.827370 50.500000,94.000000 
"/>
<path fill="none" opacity="1.000000" stroke="#000000" stroke-linecap="round" stroke-linejoin="round" stroke-width="2.000000"
	d="
M91.500000,51.500000 
	C86.594765,52.201790 83.516258,55.186989 81.500000,59.500000 
"/>
<path fill="none" opacity="1.000000" stroke="#000000" stroke-linecap="round" stroke-linejoin="round" stroke-width="3.000000"
	d="
M65.500000,86.500000 
	C62.969482,86.753517 62.269424,89.293930 60.501541,90.502258 
	C58.682899,91.745262 56.887253,93.049019 54.500000,92.000000 
"/>
<path fill="none" opacity="1.000000" stroke="#000000" stroke-linecap="round" stroke-linejoin="round" stroke-width="3.000000"
	d="
M94.500000,112.500000 
	C94.505760,116.437820 95.612808,120.075294 97.500000,123.500000 
"/>
<path fill="none" opacity="1.000000" stroke="#000000" stroke-linecap="round" stroke-linejoin="round" stroke-width="3.000000"
	d="
M106.000000,107.000000 
	C105.178352,106.637138 104.356712,106.274277 103.508980,105.899895 
	C99.659668,108.243866 100.564995,111.608208 102.099159,114.446396 
	C104.049500,118.054520 106.164581,121.898178 111.000000,122.500000 
"/>
<path fill="none" opacity="1.000000" stroke="#000000" stroke-linecap="round" stroke-linejoin="round" stroke-width="6.000000"
	d="
M69.000000,25.000000 
	C67.302834,23.392138 65.899811,23.456114 64.472549,25.480648 
	C62.309853,28.548380 64.224709,38.773846 67.522545,40.455795 
	C68.835648,41.125496 69.679192,39.858391 70.500000,39.000000 
"/>
<path fill="none" opacity="1.000000" stroke="#000000" stroke-linecap="round" stroke-linejoin="round" stroke-width="3.000000"
	d="
M93.000000,75.000000 
	C91.456848,77.772926 88.919434,79.153870 86.000000,80.000000 
"/>
<path fill="none" opacity="1.000000" stroke="#000000" stroke-linecap="round" stroke-linejoin="round" stroke-width="3.000000"
	d="
M66.000000,70.500000 
	C65.955345,73.202751 66.343353,75.959587 65.000000,78.500000 
"/>
<path fill="none" opacity="1.000000" stroke="#000000" stroke-linecap="round" stroke-linejoin="round" stroke-width="3.000000"
	d="
M98.500000,73.000000 
	C98.833336,75.500000 99.166664,78.000000 99.500000,80.500000 
"/>
<path fill="none" opacity="1.000000" stroke="#000000" stroke-linecap="round" stroke-linejoin="round" stroke-width="2.000000"
	d="
M100.500000,118.500000 
	C100.833336,119.666664 101.166664,120.833336 101.500000,122.000000 
"/>
</svg>